<?xml version="1.0" standalone="yes"?>

<svg version="1.1" viewBox="0.0 0.0 170.3018372703412 109.24409448818898" fill="none" stroke="none" stroke-linecap="square" stroke-miterlimit="10" xmlns="http://www.w3.org/2000/svg" xmlns:xlink="http://www.w3.org/1999/xlink"><clipPath id="p.0"><path d="m0 0l170.30183 0l0 109.244095l-170.30183 0l0 -109.244095z" clip-rule="nonzero"></path></clipPath><g clip-path="url(#p.0)"><path fill="#000000" fill-opacity="0.0" d="m0 0l170.30183 0l0 109.244095l-170.30183 0z" fill-rule="evenodd"></path><path fill="#000000" fill-opacity="0.0" d="m112.51181 7.905512l51.874023 0l0 35.84252l-51.874023 0z" fill-rule="evenodd"></path><path fill="#000000" d="m122.35556 29.705511l0 -6.734375l1.03125 0l0 1.015625q0.390625 -0.71875 0.71875 -0.9375q0.34375 -0.234375 0.734375 -0.234375q0.578125 0 1.171875 0.359375l-0.390625 1.0625q-0.421875 -0.25 -0.828125 -0.25q-0.375 0 -0.6875 0.234375q-0.296875 0.21875 -0.421875 0.625q-0.1875 0.609375 -0.1875 1.328125l0 3.53125l-1.140625 0zm8.43837 0l-1.140625 0l0 -7.28125q-0.421875 0.390625 -1.09375 0.796875q-0.65625 0.390625 -1.1875 0.578125l0 -1.109375q0.953125 -0.4375 1.671875 -1.078125q0.71875 -0.640625 1.015625 -1.25l0.734375 0l0 9.34375z" fill-rule="nonzero"></path><path fill="#000000" fill-opacity="0.0" d="m0.8031496 49.2231l0 0c0 -25.248547 20.467989 -45.716537 45.716534 -45.716537l0 0c12.124779 0 23.75296 4.81655 32.326477 13.390064c8.573509 8.573513 13.39006 20.20169 13.39006 32.326473l0 0c0 25.248543 -20.467995 45.716537 -45.716537 45.716537l0 0c-25.248545 0 -45.716534 -20.467995 -45.716534 -45.716537z" fill-rule="evenodd"></path><path stroke="#000000" stroke-width="1.0" stroke-linejoin="round" stroke-linecap="butt" d="m0.8031496 49.2231l0 0c0 -25.248547 20.467989 -45.716537 45.716534 -45.716537l0 0c12.124779 0 23.75296 4.81655 32.326477 13.390064c8.573509 8.573513 13.39006 20.20169 13.39006 32.326473l0 0c0 25.248543 -20.467995 45.716537 -45.716537 45.716537l0 0c-25.248545 0 -45.716534 -20.467995 -45.716534 -45.716537z" fill-rule="evenodd"></path><path fill="#000000" fill-opacity="0.0" d="m77.54068 49.2231l0 0c0 -25.248547 20.467995 -45.716537 45.716537 -45.716537l0 0c12.124786 0 23.75296 4.81655 32.326477 13.390064c8.573502 8.573513 13.39006 20.20169 13.39006 32.326473l0 0c0 25.248543 -20.467987 45.716537 -45.716537 45.716537l0 0c-25.248543 0 -45.716537 -20.467995 -45.716537 -45.716537z" fill-rule="evenodd"></path><path stroke="#000000" stroke-width="1.0" stroke-linejoin="round" stroke-linecap="butt" d="m77.54068 49.2231l0 0c0 -25.248547 20.467995 -45.716537 45.716537 -45.716537l0 0c12.124786 0 23.75296 4.81655 32.326477 13.390064c8.573502 8.573513 13.39006 20.20169 13.39006 32.326473l0 0c0 25.248543 -20.467987 45.716537 -45.716537 45.716537l0 0c-25.248543 0 -45.716537 -20.467995 -45.716537 -45.716537z" fill-rule="evenodd"></path><path fill="#000000" fill-opacity="0.0" d="m49.17323 50.097115l71.27559 0" fill-rule="evenodd"></path><path stroke="#000000" stroke-width="1.0" stroke-linejoin="round" stroke-linecap="butt" d="m49.17323 50.097115l65.27559 0" fill-rule="evenodd"></path><path fill="#000000" stroke="#000000" stroke-width="1.0" stroke-linecap="butt" d="m114.44882 51.748844l4.5380936 -1.6517296l-4.5380936 -1.6517334z" fill-rule="evenodd"></path><path fill="#000000" fill-opacity="0.0" d="m14.1932125 16.896626l36.72441 35.842518" fill-rule="evenodd"></path><path stroke="#4a86e8" stroke-width="1.0" stroke-linejoin="round" stroke-linecap="butt" d="m14.193213 16.896626l34.012104 33.195347" fill-rule="evenodd"></path><path fill="#4a86e8" stroke="#4a86e8" stroke-width="1.0" stroke-linecap="butt" d="m50.559795 52.38991c-0.6345558 0.6501732 -1.6760368 0.66282654 -2.32621 0.028270721c-0.6501694 -0.63455963 -0.66282654 -1.6760406 -0.028266907 -2.32621c0.6345558 -0.6501732 1.6760368 -0.66283035 2.32621 -0.028270721c0.6501694 0.63455963 0.66282654 1.6760368 0.028266907 2.32621z" fill-rule="nonzero"></path><path fill="#000000" fill-opacity="0.0" d="m155.5837 16.896626l-34.267723 35.842518" fill-rule="evenodd"></path><path stroke="#0000ff" stroke-width="1.0" stroke-linejoin="round" stroke-linecap="butt" d="m155.5837 16.896626l-31.648643 33.103077" fill-rule="evenodd"></path><path fill="#0000ff" stroke="#0000ff" stroke-width="1.0" stroke-linecap="butt" d="m121.6615 52.37774c-0.65667725 -0.6278229 -0.68006134 -1.669117 -0.052238464 -2.3257942c0.6278229 -0.65667725 1.6691132 -0.68006516 2.3257904 -0.05224228c0.65667725 0.6278229 0.68006897 1.669117 0.052246094 2.3257942c-0.6278229 0.65667725 -1.6691208 0.68006516 -2.325798 0.05224228z" fill-rule="nonzero"></path><path fill="#000000" fill-opacity="0.0" d="m20.582678 7.905512l51.874016 0l0 35.84252l-51.874016 0z" fill-rule="evenodd"></path><path fill="#000000" d="m30.426428 29.705511l0 -6.734375l1.03125 0l0 1.015625q0.390625 -0.71875 0.7187481 -0.9375q0.34375 -0.234375 0.734375 -0.234375q0.578125 0 1.171875 0.359375l-0.390625 1.0625q-0.421875 -0.25 -0.828125 -0.25q-0.375 0 -0.6875 0.234375q-0.2968731 0.21875 -0.4218731 0.625q-0.1875 0.609375 -0.1875 1.328125l0 3.53125l-1.140625 0zm4.141493 -4.59375q0 -1.640625 0.328125 -2.640625q0.34375 -1.015625 1.015625 -1.5625q0.671875 -0.546875 1.6875 -0.546875q0.75 0 1.3125 0.3125q0.5625 0.296875 0.921875 0.859375q0.375 0.5625 0.578125 1.390625q0.21875 0.8125 0.21875 2.1875q0 1.640625 -0.34375 2.65625q-0.328125 1.0 -1.0 1.546875q-0.671875 0.546875 -1.6875 0.546875q-1.34375 0 -2.125 -0.96875q-0.90625 -1.15625 -0.90625 -3.78125zm1.171875 0q0 2.296875 0.53125 3.0625q0.53125 0.75 1.328125 0.75q0.78125 0 1.3125 -0.75q0.546875 -0.765625 0.546875 -3.0625q0 -2.296875 -0.546875 -3.046875q-0.53125 -0.75 -1.328125 -0.75q-0.78125 0 -1.265625 0.65625q-0.578125 0.859375 -0.578125 3.140625z" fill-rule="nonzero"></path><path fill="#000000" fill-opacity="0.0" d="m20.582678 43.74803l43.086617 0l0 35.84252l-43.086617 0z" fill-rule="evenodd"></path><path fill="#000000" d="m34.832676 63.07928l1.125 0.140625q-0.171875 1.1718712 -0.9375 1.8281212q-0.765625 0.65625 -1.859375 0.65625q-1.3906231 0 -2.234373 -0.90625q-0.828125 -0.9062462 -0.828125 -2.5937462q0 -1.09375 0.359375 -1.90625q0.359375 -0.828125 1.09375 -1.234375q0.7343731 -0.40625 1.6093731 -0.40625q1.09375 0 1.796875 0.5625q0.703125 0.546875 0.890625 1.5625l-1.109375 0.171875q-0.15625 -0.671875 -0.5625 -1.015625q-0.390625 -0.34375 -0.96875 -0.34375q-0.859375 0 -1.4062481 0.625q-0.53125 0.609375 -0.53125 1.953125q0 1.359375 0.515625 1.9843712q0.5156231 0.609375 1.3593731 0.609375q0.671875 0 1.125 -0.40625q0.453125 -0.4218712 0.5625 -1.2812462zm1.9609375 -2.125q0 -1.640625 0.328125 -2.640625q0.34375 -1.015625 1.015625 -1.5625q0.671875 -0.546875 1.6875 -0.546875q0.75 0 1.3125 0.3125q0.5625 0.296875 0.921875 0.859375q0.375 0.5625 0.578125 1.390625q0.21875 0.8125 0.21875 2.1875q0 1.640625 -0.34375 2.65625q-0.328125 0.9999962 -1.0 1.5468712q-0.671875 0.546875 -1.6875 0.546875q-1.34375 0 -2.125 -0.96875q-0.90625 -1.1562462 -0.90625 -3.7812462zm1.171875 0q0 2.296875 0.53125 3.0624962q0.53125 0.75 1.328125 0.75q0.78125 0 1.3125 -0.75q0.546875 -0.7656212 0.546875 -3.0624962q0 -2.296875 -0.546875 -3.046875q-0.53125 -0.75 -1.328125 -0.75q-0.78125 0 -1.265625 0.65625q-0.578125 0.859375 -0.578125 3.140625z" fill-rule="nonzero"></path><path fill="#000000" fill-opacity="0.0" d="m116.90551 43.74803l43.086617 0l0 35.84252l-43.086617 0z" fill-rule="evenodd"></path><path fill="#000000" d="m131.15552 63.07928l1.125 0.140625q-0.171875 1.1718712 -0.9375 1.8281212q-0.765625 0.65625 -1.859375 0.65625q-1.390625 0 -2.2343826 -0.90625q-0.828125 -0.9062462 -0.828125 -2.5937462q0 -1.09375 0.359375 -1.90625q0.359375 -0.828125 1.09375 -1.234375q0.7343826 -0.40625 1.6093826 -0.40625q1.09375 0 1.796875 0.5625q0.703125 0.546875 0.890625 1.5625l-1.109375 0.171875q-0.15625 -0.671875 -0.5625 -1.015625q-0.390625 -0.34375 -0.96875 -0.34375q-0.859375 0 -1.40625 0.625q-0.5312576 0.609375 -0.5312576 1.953125q0 1.359375 0.5156326 1.9843712q0.515625 0.609375 1.359375 0.609375q0.671875 0 1.125 -0.40625q0.453125 -0.4218712 0.5625 -1.2812462zm6.2578125 2.4687462l-1.140625 0l0 -7.281246q-0.421875 0.390625 -1.09375 0.796875q-0.65625 0.390625 -1.1875 0.578125l0 -1.109375q0.953125 -0.4375 1.671875 -1.078125q0.71875 -0.640625 1.015625 -1.25l0.734375 0l0 9.343746z" fill-rule="nonzero"></path><path fill="#000000" fill-opacity="0.0" d="m61.14173 24.91076l30.267715 0l0 28.47244l-30.267715 0z" fill-rule="evenodd"></path><path fill="#000000" d="m70.23548 46.710762l2.46875 -3.5l-2.28125 -3.234375l1.421875 0l1.046875 1.578125q0.28125 0.453125 0.46875 0.75q0.265625 -0.421875 0.5 -0.734375l1.140625 -1.59375l1.375 0l-2.34375 3.171875l2.515625 3.5625l-1.40625 0l-1.375 -2.09375l-0.375 -0.5625l-1.765625 2.65625l-1.390625 0z" fill-rule="nonzero"></path><path fill="#000000" fill-opacity="0.0" d="m48.27458 100.47405l53.259846 0" fill-rule="evenodd"></path><path stroke="#4a86e8" stroke-width="1.0" stroke-linejoin="round" stroke-linecap="butt" d="m48.27458 100.47405l53.259846 0" fill-rule="evenodd"></path><path fill="#000000" fill-opacity="0.0" d="m101.534424 100.47405l53.259842 0" fill-rule="evenodd"></path><path stroke="#0000ff" stroke-width="1.0" stroke-linejoin="round" stroke-linecap="butt" d="m101.534424 100.47405l53.259842 0" fill-rule="evenodd"></path><path fill="#000000" fill-opacity="0.0" d="m49.17323 105.580055l71.27559 0" fill-rule="evenodd"></path><path stroke="#000000" stroke-width="1.0" stroke-linejoin="round" stroke-linecap="butt" d="m49.17323 105.580055l65.27559 0" fill-rule="evenodd"></path><path fill="#000000" stroke="#000000" stroke-width="1.0" stroke-linecap="butt" d="m114.44882 107.23179l4.5380936 -1.6517334l-4.5380936 -1.6517334z" fill-rule="evenodd"></path></g></svg>

