<?xml version="1.0" standalone="yes"?>

<svg version="1.1" viewBox="0.0 0.0 100.0 119.74015748031496" fill="none" stroke="none" stroke-linecap="square" stroke-miterlimit="10" xmlns="http://www.w3.org/2000/svg" xmlns:xlink="http://www.w3.org/1999/xlink"><clipPath id="p.0"><path d="m0 0l100.0 0l0 119.74016l-100.0 0l0 -119.74016z" clip-rule="nonzero"></path></clipPath><g clip-path="url(#p.0)"><path fill="#000000" fill-opacity="0.0" d="m0 0l100.0 0l0 119.74016l-100.0 0z" fill-rule="evenodd"></path><path fill="#000000" fill-opacity="0.0" d="m24.062992 7.905512l51.874012 0l0 35.84252l-51.874012 0z" fill-rule="evenodd"></path><path fill="#000000" d="m33.906742 29.705511l0 -6.734375l1.03125 0l0 1.015625q0.390625 -0.71875 0.71875 -0.9375q0.34375 -0.234375 0.734375 -0.234375q0.578125 0 1.171875 0.359375l-0.390625 1.0625q-0.421875 -0.25 -0.828125 -0.25q-0.375 0 -0.6875 0.234375q-0.296875 0.21875 -0.421875 0.625q-0.1875 0.609375 -0.1875 1.328125l0 3.53125l-1.140625 0zm4.1414948 -4.59375q0 -1.640625 0.328125 -2.640625q0.34375 -1.015625 1.015625 -1.5625q0.671875 -0.546875 1.6875 -0.546875q0.75 0 1.3125 0.3125q0.5625 0.296875 0.921875 0.859375q0.375 0.5625 0.578125 1.390625q0.21875 0.8125 0.21875 2.1875q0 1.640625 -0.34375 2.65625q-0.328125 1.0 -1.0 1.546875q-0.671875 0.546875 -1.6875 0.546875q-1.34375 0 -2.125 -0.96875q-0.90625 -1.15625 -0.90625 -3.78125zm1.171875 0q0 2.296875 0.53125 3.0625q0.53125 0.75 1.328125 0.75q0.78125 0 1.3125 -0.75q0.546875 -0.765625 0.546875 -3.0625q0 -2.296875 -0.546875 -3.046875q-0.53125 -0.75 -1.328125 -0.75q-0.78125 0 -1.265625 0.65625q-0.578125 0.859375 -0.578125 3.140625z" fill-rule="nonzero"></path><path fill="#000000" fill-opacity="0.0" d="m24.062992 43.74803l43.086613 0l0 35.84252l-43.086613 0z" fill-rule="evenodd"></path><path fill="#000000" d="m38.312992 63.07928l1.125 0.140625q-0.171875 1.1718712 -0.9375 1.8281212q-0.765625 0.65625 -1.859375 0.65625q-1.390625 0 -2.234375 -0.90625q-0.828125 -0.9062462 -0.828125 -2.5937462q0 -1.09375 0.359375 -1.90625q0.359375 -0.828125 1.09375 -1.234375q0.734375 -0.40625 1.609375 -0.40625q1.09375 0 1.796875 0.5625q0.703125 0.546875 0.890625 1.5625l-1.109375 0.171875q-0.15625 -0.671875 -0.5625 -1.015625q-0.390625 -0.34375 -0.96875 -0.34375q-0.859375 0 -1.40625 0.625q-0.53125 0.609375 -0.53125 1.953125q0 1.359375 0.515625 1.9843712q0.515625 0.609375 1.359375 0.609375q0.671875 0 1.125 -0.40625q0.453125 -0.4218712 0.5625 -1.2812462zm1.9609375 -2.125q0 -1.640625 0.328125 -2.640625q0.34375 -1.015625 1.015625 -1.5625q0.671875 -0.546875 1.6875 -0.546875q0.75 0 1.3125 0.3125q0.5625 0.296875 0.921875 0.859375q0.375 0.5625 0.578125 1.390625q0.21875 0.8125 0.21875 2.1875q0 1.640625 -0.34375 2.65625q-0.328125 0.9999962 -1.0 1.5468712q-0.671875 0.546875 -1.6875 0.546875q-1.34375 0 -2.125 -0.96875q-0.90625 -1.1562462 -0.90625 -3.7812462zm1.171875 0q0 2.296875 0.53125 3.0624962q0.53125 0.75 1.328125 0.75q0.78125 0 1.3125 -0.75q0.546875 -0.7656212 0.546875 -3.0624962q0 -2.296875 -0.546875 -3.046875q-0.53125 -0.75 -1.328125 -0.75q-0.78125 0 -1.265625 0.65625q-0.578125 0.859375 -0.578125 3.140625z" fill-rule="nonzero"></path><path fill="#000000" fill-opacity="0.0" d="m60.363518 29.380577l30.267715 0l0 28.472443l-30.267715 0z" fill-rule="evenodd"></path><path fill="#000000" d="m69.45727 51.180576l2.46875 -3.5l-2.28125 -3.234375l1.421875 0l1.046875 1.578125q0.28125 0.453125 0.46875 0.75q0.265625 -0.421875 0.5 -0.734375l1.140625 -1.59375l1.375 0l-2.34375 3.171875l2.515625 3.5625l-1.40625 0l-1.375 -2.09375l-0.375 -0.5625l-1.765625 2.65625l-1.390625 0z" fill-rule="nonzero"></path><path fill="#000000" fill-opacity="0.0" d="m4.2834644 49.2231l0 0c0 -25.248547 20.46799 -45.716537 45.716537 -45.716537l0 0c12.124779 0 23.75296 4.81655 32.32647 13.390064c8.573517 8.573513 13.390068 20.20169 13.390068 32.326473l0 0c0 25.248543 -20.467995 45.716537 -45.716537 45.716537l0 0c-25.248545 0 -45.716537 -20.467995 -45.716537 -45.716537z" fill-rule="evenodd"></path><path stroke="#000000" stroke-width="1.0" stroke-linejoin="round" stroke-linecap="butt" d="m4.2834644 49.2231l0 0c0 -25.248547 20.46799 -45.716537 45.716537 -45.716537l0 0c12.124779 0 23.75296 4.81655 32.32647 13.390064c8.573517 8.573513 13.390068 20.20169 13.390068 32.326473l0 0c0 25.248543 -20.467995 45.716537 -45.716537 45.716537l0 0c-25.248545 0 -45.716537 -20.467995 -45.716537 -45.716537z" fill-rule="evenodd"></path><path fill="#000000" fill-opacity="0.0" d="m59.46194 25.82677l0 0c0 -6.1316643 4.9706993 -11.102362 11.102367 -11.102362l0 0c2.9445267 0 5.7684555 1.1697102 7.8505554 3.2518063c2.0820923 2.082098 3.2518005 4.906027 3.2518005 7.8505554l0 0c0 6.131666 -4.9706955 11.102364 -11.102356 11.102364l0 0c-6.131668 0 -11.102367 -4.9706974 -11.102367 -11.102364z" fill-rule="evenodd"></path><path stroke="#000000" stroke-width="1.0" stroke-linejoin="round" stroke-linecap="butt" d="m59.46194 25.82677l0 0c0 -6.1316643 4.9706993 -11.102362 11.102367 -11.102362l0 0c2.9445267 0 5.7684555 1.1697102 7.8505554 3.2518063c2.0820923 2.082098 3.2518005 4.906027 3.2518005 7.8505554l0 0c0 6.131666 -4.9706955 11.102364 -11.102356 11.102364l0 0c-6.131668 0 -11.102367 -4.9706974 -11.102367 -11.102364z" fill-rule="evenodd"></path><path fill="#000000" fill-opacity="0.0" d="m52.572178 50.097115l17.29134 -22.708664" fill-rule="evenodd"></path><path stroke="#000000" stroke-width="1.0" stroke-linejoin="round" stroke-linecap="butt" d="m52.572178 50.097115l13.656475 -17.935009" fill-rule="evenodd"></path><path fill="#000000" stroke="#000000" stroke-width="1.0" stroke-linecap="butt" d="m67.542786 33.162743l1.4350967 -4.611189l-4.063362 2.6099148z" fill-rule="evenodd"></path><path fill="#000000" fill-opacity="0.0" d="m17.673529 16.896626l36.72441 35.842518" fill-rule="evenodd"></path><path stroke="#4a86e8" stroke-width="1.0" stroke-linejoin="round" stroke-linecap="butt" d="m17.673529 16.896626l34.012108 33.195347" fill-rule="evenodd"></path><path fill="#4a86e8" stroke="#4a86e8" stroke-width="1.0" stroke-linecap="butt" d="m54.04011 52.38991c-0.63455963 0.6501732 -1.6760368 0.66282654 -2.32621 0.028270721c-0.6501694 -0.63455963 -0.66282654 -1.6760406 -0.028270721 -2.32621c0.63455963 -0.6501732 1.6760406 -0.66283035 2.32621 -0.028270721c0.6501732 0.63455963 0.66283035 1.6760368 0.028270721 2.32621z" fill-rule="nonzero"></path><path fill="#000000" fill-opacity="0.0" d="m76.49344 16.75328l-6.8976364 11.653543" fill-rule="evenodd"></path><path stroke="#0000ff" stroke-width="1.0" stroke-linejoin="round" stroke-linecap="butt" d="m76.49344 16.75328l-4.9671783 8.392038" fill-rule="evenodd"></path><path fill="#0000ff" stroke="#0000ff" stroke-width="1.0" stroke-linecap="butt" d="m69.85048 27.976545c-0.7818222 -0.4627533 -1.0404816 -1.4716816 -0.57772064 -2.2535038c0.4627533 -0.7818222 1.4716797 -1.0404778 2.253502 -0.57772446c0.7818222 0.4627552 1.0404739 1.4716835 0.57772064 2.2535057c-0.4627533 0.7818222 -1.4716797 1.0404778 -2.253502 0.57772255z" fill-rule="nonzero"></path><path fill="#000000" fill-opacity="0.0" d="m4.2824516 108.681404l51.811024 0" fill-rule="evenodd"></path><path stroke="#4a86e8" stroke-width="1.0" stroke-linejoin="round" stroke-linecap="butt" d="m4.2824516 108.681404l51.811024 0" fill-rule="evenodd"></path><path fill="#000000" fill-opacity="0.0" d="m69.35433 108.68241l-13.259842 0" fill-rule="evenodd"></path><path stroke="#0000ff" stroke-width="1.0" stroke-linejoin="round" stroke-linecap="butt" d="m69.35433 108.68241l-13.259842 0" fill-rule="evenodd"></path><path fill="#000000" fill-opacity="0.0" d="m4.2834644 114.272964l32.09449 0" fill-rule="evenodd"></path><path stroke="#000000" stroke-width="1.0" stroke-linejoin="round" stroke-linecap="butt" d="m4.2834644 114.272964l26.094488 0" fill-rule="evenodd"></path><path fill="#000000" stroke="#000000" stroke-width="1.0" stroke-linecap="butt" d="m30.377953 115.9247l4.5380974 -1.6517334l-4.5380974 -1.6517334z" fill-rule="evenodd"></path></g></svg>

